<?xml version="1.0" encoding="UTF-8" standalone="no"?>
<svg
   xmlns:dc="http://purl.org/dc/elements/1.1/"
   xmlns:cc="http://creativecommons.org/ns#"
   xmlns:rdf="http://www.w3.org/1999/02/22-rdf-syntax-ns#"
   xmlns:svg="http://www.w3.org/2000/svg"
   xmlns="http://www.w3.org/2000/svg"
   viewBox="0 0 706.81067 403.604"
   height="403.604"
   width="706.81067"
   xml:space="preserve"
   id="svg2"
   version="1.1"><metadata
     id="metadata8"><rdf:RDF><cc:Work
         rdf:about=""><dc:format>image/svg+xml</dc:format><dc:type
           rdf:resource="http://purl.org/dc/dcmitype/StillImage" /></cc:Work></rdf:RDF></metadata><defs
     id="defs6"><clipPath
       id="clipPath30"
       clipPathUnits="userSpaceOnUse"><path
         id="path28"
         d="M 0,302.703 H 530.108 V 0 H 0 Z" /></clipPath></defs><g
     transform="matrix(1.3333333,0,0,-1.3333333,0,403.604)"
     id="g10"><g
       transform="translate(0.1314,302.7024)"
       id="g12"><path
         id="path14"
         style="fill:#9b8578;fill-opacity:1;fill-rule:nonzero;stroke:none"
         d="m 0,0 v -302.702 l 151.688,115.094 V 0 Z" /></g><g
       transform="translate(513.7425,133.9992)"
       id="g16"><path
         id="path18"
         style="fill:#58595b;fill-opacity:1;fill-rule:nonzero;stroke:none"
         d="m 0,0 -25.583,-7.75 -16.084,-4.333 -20.916,-0.93 -12.668,2.263 -20.499,5.334 -20.833,2.916 -17.251,-1.583 -14.249,-4.5 -21.167,-7.796 -17.083,-4.704 -15.75,-2.443 -12.001,1.693 -0.417,-5.5 1.751,-0.166 10.75,-2.25 h 11.083 l 13.334,3.833 15.583,4.75 11.916,4.25 18.25,4.666 9.417,1.904 h 10.917 l 6.999,-0.737 12.668,-2.25 11,-1.917 4.666,-1.129 19.75,-3.454 18.833,1.25 9.334,2.204 15.833,6.713 12.584,4.833 10.332,1.084 5.867,-1.354 V 2.489 L 11.75,2.833 Z" /></g><g
       transform="translate(397.7163,111.1536)"
       id="g20"><path
         id="path22"
         style="fill:#a9a29e;fill-opacity:1;fill-rule:nonzero;stroke:none"
         d="m 0,0 -39.5,-14.512 -49,-2.16 -59.486,-10.562 -32.291,0.265 -12.159,-5.58 h 35.268 l 46.852,4.354 L -47,-24.25 2.5,-8.426 121.5,0 132.392,2.185 v 3.44 L 118,6.826 Z" /></g><g
       id="g24"><g
         clip-path="url(#clipPath30)"
         id="g26"><g
           transform="translate(190.522,99.0324)"
           id="g32"><path
             id="path34"
             style="fill:#231f20;fill-opacity:1;fill-rule:nonzero;stroke:none"
             d="M 0,0 C 1.549,0.005 1.982,0.343 2.098,1.524 2.237,2.937 0.614,4.759 -0.767,4.713 -0.944,4.707 -1.165,4.584 -1.282,4.444 -1.927,3.68 -2.272,2.821 -1.881,1.826 -1.513,0.891 -1.353,-0.308 0,0 m 13.044,29.3 c -0.163,0.654 -0.274,1.326 -0.503,1.955 -0.259,0.713 -2.047,1.347 -2.601,0.982 -1.69,-1.116 -1.784,-4.456 -0.141,-5.687 0.197,-0.147 0.512,-0.204 0.768,-0.193 1.593,0.065 2.391,1.055 2.477,2.943 M 3.991,0.337 c 0.018,-0.006 0.166,-0.094 0.312,-0.09 2.592,0.071 5.187,0.094 7.775,0.25 2.741,0.165 5.488,0.361 8.203,0.75 0.973,0.14 2.01,0.715 2.749,1.388 0.947,0.861 0.111,3.355 -1.162,3.46 C 19.473,6.293 17.05,6.381 14.651,6.266 11.921,6.134 9.198,5.766 6.482,5.424 5.362,5.283 4.267,4.943 3.241,4.711 3.511,3.135 3.742,1.785 3.991,0.337 m 11.096,26.807 c 3.322,0.16 6.578,0.988 9.945,0.728 2.172,-0.169 4.382,0.019 6.566,0.171 1.976,0.137 3.949,0.384 5.903,0.702 0.889,0.144 1.465,0.764 1.372,1.793 -0.095,1.05 -0.137,2.31 -1.359,2.528 -1.895,0.338 -3.87,0.597 -5.769,0.424 -1.422,-0.129 -2.8,-0.434 -4.234,-0.136 -0.341,0.071 -0.715,-0.009 -1.073,-0.027 -2.946,-0.145 -5.893,-0.259 -8.835,-0.457 -1.005,-0.068 -1.995,-0.349 -2.844,-0.506 0.114,-1.82 0.217,-3.452 0.328,-5.22 m 78.216,-7.915 c 0,-1.518 -0.023,-3.016 0.005,-4.512 0.064,-3.381 0.162,-6.762 0.224,-10.143 0.013,-0.747 0.37,-0.984 1.053,-0.907 1.15,0.129 2.299,0.263 3.45,0.373 2.552,0.243 4.923,0.986 6.947,2.604 0.449,0.359 0.864,0.845 1.106,1.361 1.427,3.037 0.327,6.38 -2.603,7.923 -0.508,0.267 -1.142,0.281 -1.699,0.465 -2.713,0.896 -5.419,1.81 -8.483,2.836 M 34.362,46.128 c 0.073,-0.133 0.145,-0.266 0.217,-0.399 1.267,0.278 2.521,0.655 3.802,0.813 2.626,0.324 5.241,0.049 7.786,-0.62 1.63,-0.428 3.335,-0.86 4.767,-1.699 3.348,-1.963 6.231,-4.499 8.601,-7.637 1.881,-2.491 3.512,-5.1 4.836,-7.922 0.959,-2.041 1.359,-4.198 1.804,-6.392 0.773,-3.819 1.879,-7.559 1.968,-11.505 0.069,-3.059 0.553,-6.12 0.471,-9.17 -0.093,-3.446 -1.212,-6.571 -4.291,-8.64 -0.423,-0.284 -0.73,-0.739 -1.221,-1.25 0.74,0 1.221,-0.06 1.682,0.009 3.503,0.527 7.026,0.963 10.493,1.671 1.846,0.377 3.747,0.978 5.354,1.932 4.303,2.555 7.142,6.518 9.533,10.81 0.275,0.494 0.317,1.147 0.357,1.733 0.055,0.804 -0.021,1.615 0.008,2.421 0.025,0.675 0.154,1.346 0.178,2.021 0.166,4.807 -0.333,9.571 -1.487,14.215 -1.305,5.249 -3.591,9.944 -8.927,12.338 -1.731,0.777 -3.431,1.744 -5.251,2.175 -2.689,0.638 -5.477,0.85 -8.216,1.289 -2.1,0.337 -4.314,0.316 -6.083,1.801 -0.144,0.121 -0.368,0.147 -0.553,0.222 -2.541,1.028 -5.095,2.026 -7.62,3.094 -4.318,1.827 -8.706,2.816 -13.275,1.034 -1.692,-0.659 -3.291,-1.556 -4.933,-2.344 M 26.12,35.359 C 26.189,35.24 26.258,35.12 26.327,35 c 0.711,0 1.422,-0.014 2.132,0.002 3.256,0.073 6.534,0.768 9.75,-0.246 0.62,-0.196 1.303,-0.588 1.667,-1.097 0.418,-0.583 0.609,-1.382 0.73,-2.115 0.393,-2.376 -0.326,-3.984 -2.605,-4.524 -2.303,-0.547 -4.75,-0.502 -7.137,-0.667 -0.666,-0.046 -1.344,0.112 -2.017,0.119 -1.8,0.018 -3.6,0.006 -5.563,0.006 -0.08,-0.479 -0.231,-1.012 -0.249,-1.55 -0.089,-2.594 -0.857,-5.025 -1.903,-7.348 -0.898,-1.993 -2.101,-3.848 -3.028,-5.829 -0.523,-1.117 -0.76,-2.367 -1.222,-3.868 1.343,0.154 2.311,0.304 3.284,0.363 0.743,0.044 1.57,0.168 2.222,-0.091 0.988,-0.393 2.215,-0.739 2.475,-1.995 0.235,-1.133 0.298,-2.31 0.336,-3.471 0.015,-0.441 -0.112,-1.088 -0.415,-1.301 -1.259,-0.89 -2.228,-2.337 -4.067,-2.202 -1.419,0.103 -2.849,0.075 -4.268,0.182 -1.217,0.092 -1.815,-0.225 -1.772,-1.45 0.041,-1.169 0.272,-2.391 0.706,-3.475 1.02,-2.549 2.54,-4.819 5.393,-5.48 2.597,-0.602 5.266,-0.999 7.924,-1.184 1.805,-0.126 3.708,0.031 5.461,0.477 5.673,1.442 11.444,2.176 17.248,2.692 2.846,0.253 5.711,0.278 8.568,0.406 -0.09,0.096 -0.18,0.191 -0.27,0.287 0.38,0.532 0.74,1.081 1.148,1.591 0.222,0.276 0.513,0.505 0.797,0.722 3.76,2.877 4.961,6.783 4.569,11.331 -0.147,1.704 -0.202,3.424 -0.483,5.106 -0.834,4.979 -1.639,9.968 -2.686,14.904 -0.838,3.948 -3.199,7.161 -5.711,10.228 -1.183,1.444 -2.267,3.033 -3.685,4.207 -3.798,3.144 -8.242,4.589 -13.203,4.377 -2.676,-0.114 -5.231,-0.576 -7.356,-2.358 -1.279,-1.072 -2.535,-2.172 -3.766,-3.299 -1.096,-1.002 -2.142,-2.058 -3.211,-3.091 m 82.936,-22.752 c 0,-1.128 -0.101,-2.08 0.048,-2.991 0.062,-0.377 0.606,-0.845 1.022,-0.97 6.06,-1.824 12.193,-3.251 18.59,-2.628 1.858,0.182 3.698,0.608 5.527,1.006 2.249,0.49 4.493,1.019 6.714,1.622 2.733,0.742 5.46,1.518 8.156,2.386 4.434,1.429 8.846,2.927 13.256,4.429 3.396,1.156 6.752,2.434 10.167,3.53 4.472,1.435 8.955,2.858 13.491,4.073 3.919,1.05 7.891,1.955 11.888,2.65 5.887,1.023 11.861,1.067 17.797,0.608 3.402,-0.264 6.762,-1.102 10.131,-1.734 3.952,-0.741 7.919,-1.428 11.833,-2.341 5.278,-1.23 10.484,-2.774 15.774,-3.947 3.221,-0.715 6.529,-1.19 9.821,-1.4 3.976,-0.254 7.982,-0.25 11.965,-0.105 3.946,0.144 7.904,0.438 11.811,0.99 2.042,0.288 3.994,1.244 5.969,1.949 1.312,0.469 2.585,1.046 3.886,1.544 1.524,0.585 3.08,1.09 4.588,1.713 2.687,1.108 5.354,2.265 8.018,3.428 2.517,1.1 5.003,2.272 7.534,3.336 1.129,0.475 2.325,0.803 3.509,1.131 2.067,0.572 4.123,1.253 6.23,1.601 4.119,0.682 8.252,0.956 12.184,-0.984 0.315,-0.156 0.718,-0.147 1.01,-0.328 0.307,-0.191 0.53,-0.518 0.789,-0.786 -0.329,-0.2 -0.67,-0.588 -0.986,-0.569 -1.587,0.098 -3.17,0.276 -4.749,0.476 -3.349,0.423 -6.657,0.178 -9.923,-0.62 -2.005,-0.489 -4.026,-0.958 -5.969,-1.639 -1.973,-0.692 -3.853,-1.647 -5.784,-2.461 -2.005,-0.844 -4.038,-1.622 -6.031,-2.492 -1.781,-0.777 -3.507,-1.681 -5.29,-2.451 -1.351,-0.584 -2.765,-1.016 -4.131,-1.568 -1.541,-0.623 -3.058,-1.303 -4.586,-1.958 -0.22,-0.094 -0.433,-0.218 -0.663,-0.267 -3.344,-0.727 -6.635,-1.644 -10.116,-1.728 -3.242,-0.078 -6.47,-0.687 -9.713,-0.801 -2.82,-0.099 -5.664,0.048 -8.478,0.303 -3.476,0.314 -6.94,0.8 -10.393,1.318 -1.53,0.23 -3.018,0.735 -4.53,1.094 -3.547,0.841 -7.096,1.675 -10.646,2.502 -3.129,0.729 -6.243,1.54 -9.396,2.145 -4.498,0.865 -9.019,1.616 -13.544,2.325 -1.327,0.207 -2.704,0.184 -4.053,0.136 -4.129,-0.145 -8.272,-0.19 -12.377,-0.599 -2.552,-0.253 -5.043,-1.101 -7.565,-1.67 -2.873,-0.649 -5.782,-1.166 -8.616,-1.954 -3.785,-1.052 -7.541,-2.23 -11.259,-3.5 -4.482,-1.531 -8.884,-3.292 -13.37,-4.81 -3.275,-1.108 -6.637,-1.957 -9.945,-2.972 -3.038,-0.932 -6.047,-1.954 -9.084,-2.885 -0.904,-0.277 -1.869,-0.346 -2.793,-0.568 -1.042,-0.25 -2.055,-0.64 -3.105,-0.834 -2.261,-0.418 -4.503,-0.85 -6.856,-0.606 -2.117,0.219 -4.284,-0.067 -6.406,0.127 -4.02,0.368 -7.852,1.601 -11.717,2.831 C 106.026,3.185 102.13,2.011 97.915,1.671 95.587,1.483 93.231,1.64 90.889,1.58 90.55,1.571 90.112,1.297 89.903,1.012 c -2.14,-2.919 -4.471,-5.678 -7.63,-7.505 -1.7,-0.982 -3.588,-1.788 -5.494,-2.231 -3.404,-0.792 -6.869,-1.416 -10.342,-1.796 -3.473,-0.381 -6.993,-0.299 -10.482,-0.561 -4.733,-0.354 -9.47,-0.729 -14.178,-1.317 -2.614,-0.327 -5.167,-1.13 -7.757,-1.673 -3.318,-0.695 -6.654,-0.697 -9.988,-0.102 -1.14,0.203 -2.279,0.423 -3.405,0.688 -2.918,0.687 -5.088,2.27 -6.403,5.063 -0.98,2.08 -1.885,4.135 -1.899,6.489 -10e-4,0.242 -0.432,0.686 -0.67,0.69 C 8.837,-1.194 6.007,-0.95 3.245,-1.867 2.537,-2.102 1.709,-1.975 0.768,-2.023 0.439,-3.014 -0.073,-2.97 -0.924,-2.04 c -1.613,1.764 -2.834,3.576 -2.45,6.157 0.305,2.046 2.205,3.164 4.078,2.248 0.229,-0.112 0.534,-0.144 0.79,-0.111 4.348,0.571 8.694,1.158 13.04,1.745 0.07,0.01 0.132,0.078 0.261,0.157 0.01,3.343 1.756,6.071 3.353,8.873 1.413,2.479 2.414,5.124 2.766,7.979 0.057,0.458 0.008,0.93 0.008,1.605 -3.763,-1.356 -7.727,-0.904 -11.235,-2.736 -2.745,0.785 -3.54,6.529 -1.932,8.671 0.983,1.31 2.912,2.048 4.531,1.67 0.382,-0.089 0.789,-0.146 1.178,-0.119 2.945,0.206 5.889,0.446 8.834,0.651 0.591,0.041 0.997,0.109 1.26,0.801 2.697,7.096 7.628,12.142 14.518,15.178 2.084,0.918 4.419,1.162 6.797,1.011 5.008,-0.318 9.297,-2.742 13.844,-4.416 1.866,-0.687 3.658,-1.63 5.569,-2.126 2.339,-0.607 4.755,-1.05 7.162,-1.233 3.275,-0.249 6.399,-0.749 9.151,-2.706 1.741,-1.237 3.84,-2.107 5.263,-3.624 3.437,-3.665 5.525,-8.087 6.335,-13.114 0.261,-1.618 1.639,-2.658 3.052,-3.295 2.139,-0.964 4.329,-1.971 6.605,-2.433 2.49,-0.507 4.185,-1.981 6.155,-3.336 1.98,-1.361 4.406,-2.416 7.071,-1.998 0.297,0.047 0.635,-0.053 0.935,-0.148 1.963,-0.625 3.928,-0.78 5.95,-0.234 0.638,0.173 1.367,0.187 2.023,0.079 2.766,-0.452 5.375,0.245 8.015,0.899 1.612,0.398 3.316,0.44 4.914,0.877 3.821,1.044 7.6,2.238 11.403,3.347 1.257,0.367 2.57,0.562 3.798,1 4.421,1.576 8.807,3.249 13.225,4.835 3.219,1.155 6.462,2.245 9.704,3.337 2.791,0.94 5.585,1.874 8.395,2.753 4.506,1.41 9.134,2.258 13.832,2.629 3.563,0.281 7.14,0.464 10.714,0.508 5.251,0.064 10.381,-0.982 15.488,-2.06 5.219,-1.102 10.44,-2.209 15.616,-3.493 3.786,-0.939 7.466,-2.305 11.257,-3.217 2.429,-0.584 4.966,-0.854 7.468,-0.971 4.826,-0.226 9.664,-0.381 14.494,-0.314 8.094,0.112 15.894,1.838 23.521,4.541 4.54,1.608 9.19,2.915 13.809,4.294 4.66,1.391 9.309,2.843 14.027,4.008 3.937,0.972 7.957,1.632 11.961,2.301 1.987,0.331 3.921,-0.038 5.444,-1.524 0.258,-0.251 0.38,-0.744 0.368,-1.119 -0.005,-0.156 -0.511,-0.354 -0.815,-0.425 -0.25,-0.059 -0.567,-0.023 -0.803,0.084 -2.422,1.095 -4.899,0.787 -7.365,0.272 -3.074,-0.642 -6.162,-1.249 -9.189,-2.071 -5.311,-1.444 -10.586,-3.021 -15.865,-4.578 -5.048,-1.49 -10.059,-3.113 -15.132,-4.512 -3.864,-1.065 -7.774,-2.005 -11.713,-2.741 -2.289,-0.428 -4.673,-0.448 -7.016,-0.468 -4.681,-0.04 -9.366,-0.033 -14.044,0.108 -2.732,0.083 -5.485,0.296 -8.174,0.761 -2.26,0.39 -4.426,1.292 -6.661,1.859 -4.473,1.134 -9.049,1.935 -13.424,3.361 -3.977,1.296 -8.121,1.45 -12.099,2.464 -3.753,0.956 -7.563,1.15 -11.355,1.306 -3.386,0.14 -6.808,-0.262 -10.196,-0.606 -2.84,-0.288 -5.669,-0.759 -8.474,-1.296 -2.025,-0.388 -4.03,-0.936 -5.998,-1.559 -3.831,-1.213 -7.644,-2.488 -11.437,-3.817 -3.108,-1.089 -6.161,-2.334 -9.264,-3.436 -3.448,-1.224 -6.893,-2.476 -10.399,-3.515 -5.369,-1.592 -10.778,-3.056 -16.195,-4.481 -1.679,-0.441 -3.433,-0.621 -5.162,-0.842 -3.082,-0.395 -6.165,-0.824 -9.261,-1.051 -1.569,-0.115 -3.174,0.121 -4.751,0.303 -1.696,0.197 -3.387,0.473 -5.062,0.804 -0.765,0.151 -1.487,0.517 -2.531,0.896" /></g><g
           transform="translate(101.8551,213.3942)"
           id="g36"><path
             id="path38"
             style="fill:#231f20;fill-opacity:1;fill-rule:nonzero;stroke:none"
             d="m 0,0 c -1.294,-0.104 -2.411,-0.112 -3.497,-0.3 -1.664,-0.288 -3.411,-0.459 -4.932,-1.121 -1.967,-0.855 -3.755,-2.128 -5.602,-3.249 -2.003,-1.215 -3.942,-2.543 -5.989,-3.674 -1.976,-1.091 -4.205,-1.727 -5.787,-3.496 -0.292,-0.327 -0.913,-0.341 -1.356,-0.556 -0.769,-0.373 -1.558,-0.729 -2.264,-1.204 -1.02,-0.688 -1.93,-1.544 -2.966,-2.205 -1.396,-0.89 -2.889,-1.626 -4.295,-2.501 -0.804,-0.5 -1.483,-1.198 -2.279,-1.713 -2.446,-1.582 -4.933,-3.101 -7.38,-4.682 -1.297,-0.838 -2.527,-1.779 -3.818,-2.627 -1.276,-0.838 -2.615,-1.59 -3.595,-3.184 1.532,0.145 2.764,-0.963 4.147,0.164 1.629,1.328 3.363,2.538 5.118,3.697 1.255,0.829 2.645,1.452 3.933,2.235 2.882,1.749 5.688,3.63 8.618,5.292 3.5,1.985 7.109,3.775 10.647,5.693 3.241,1.756 6.157,4.019 9.668,5.397 2.846,1.116 5.37,3.069 8.011,4.693 C -2.279,-2.518 -0.821,-1.798 0,0 m -46.483,-118.766 c 0.088,1.058 0.245,1.932 0.218,2.8 -0.124,4.143 -0.274,8.285 -0.461,12.424 -0.235,5.183 -0.532,10.363 -0.773,15.546 -0.304,6.538 -0.641,13.075 -0.843,19.616 -0.113,3.662 0.222,7.344 -0.003,10.995 -0.471,7.644 -1.175,15.273 -1.807,22.906 -0.022,0.267 -0.242,0.678 -0.454,0.741 -1.222,0.364 -2.469,0.643 -3.924,1.005 0.131,-0.922 0.177,-1.475 0.291,-2.013 0.485,-2.29 1.126,-4.556 1.459,-6.867 0.735,-5.108 1.412,-10.228 1.934,-15.362 0.389,-3.838 0.537,-7.702 0.722,-11.558 0.191,-3.983 0.301,-7.969 0.44,-11.954 0.118,-3.376 0.271,-6.752 0.329,-10.129 0.056,-3.341 -0.018,-6.684 0.02,-10.025 0.046,-4.181 0.225,-8.362 0.195,-12.542 -0.016,-2.262 0.571,-4.109 2.657,-5.583 m 2.809,-0.902 c 0.608,0.516 1.108,0.998 1.664,1.402 1.571,1.14 3.195,2.209 4.741,3.381 1.46,1.107 2.789,2.392 4.28,3.452 2.397,1.705 4.883,3.284 7.325,4.926 4.357,2.931 8.924,5.601 12.997,8.884 3.667,2.955 7.853,4.975 11.712,7.559 3.371,2.258 6.977,4.169 10.523,6.156 0.759,0.425 0.869,0.911 0.771,1.636 -0.87,6.438 -1.776,12.873 -2.581,19.32 -0.464,3.718 -0.821,7.452 -1.122,11.187 -0.404,5.011 -0.793,10.026 -1.032,15.046 -0.351,7.378 -0.519,14.763 -0.851,22.142 -0.198,4.405 -0.561,8.803 -0.872,13.539 -1.09,-0.605 -1.809,-0.931 -2.448,-1.373 -1.989,-1.377 -3.867,-2.932 -5.937,-4.167 -2.595,-1.548 -5.343,-2.837 -8.014,-4.258 -1.191,-0.634 -2.37,-1.293 -3.528,-1.984 -2.1,-1.253 -4.166,-2.562 -6.273,-3.801 -1.434,-0.844 -2.925,-1.59 -4.371,-2.415 -2.342,-1.337 -4.668,-2.704 -7.001,-4.056 -0.103,-0.06 -0.209,-0.131 -0.322,-0.154 -2.036,-0.412 -3.522,-1.732 -5.058,-2.994 -0.633,-0.521 -1.364,-0.934 -2.085,-1.333 -0.821,-0.456 -1.726,-0.771 -2.512,-1.275 -1.095,-0.703 -2.161,-1.47 -3.146,-2.318 -0.5,-0.43 -1.144,-1.108 -1.125,-1.653 0.083,-2.421 0.339,-4.839 0.615,-7.249 0.389,-3.398 0.988,-6.778 1.242,-10.185 0.222,-2.973 0.085,-5.973 0.119,-8.961 0.057,-4.989 0.027,-9.982 0.211,-14.966 0.2,-5.42 0.6,-10.833 0.917,-16.248 0.21,-3.578 0.438,-7.155 0.639,-10.733 0.187,-3.344 0.404,-6.687 0.505,-10.033 0.083,-2.745 0.017,-5.495 0.017,-8.474 m 56.833,35.523 c -0.879,-0.528 -1.691,-0.759 -2.083,-1.297 -1.28,-1.757 -3.446,-2 -5.064,-3.165 -1.115,-0.803 -2.408,-1.356 -3.606,-2.048 -3.117,-1.798 -6.228,-3.606 -9.335,-5.422 -0.48,-0.281 -1.02,-0.54 -1.369,-0.949 -1.452,-1.703 -3.391,-2.69 -5.236,-3.863 -2.166,-1.376 -4.113,-3.093 -6.211,-4.582 -1.544,-1.095 -3.205,-2.025 -4.763,-3.101 -0.812,-0.561 -1.457,-1.37 -2.282,-1.904 -1.132,-0.731 -2.377,-1.282 -3.545,-1.961 -0.577,-0.335 -1.107,-0.76 -1.627,-1.184 -2.019,-1.65 -4.001,-3.347 -6.045,-4.965 -1.833,-1.452 -3.707,-2.856 -5.611,-4.213 -0.72,-0.513 -1.545,-0.705 -2.172,0.271 -0.141,0.218 -0.379,0.413 -0.616,0.523 -2.666,1.23 -3.964,3.58 -5.022,6.119 -0.117,0.28 -0.084,0.629 -0.09,0.947 -0.088,4.982 -0.195,9.963 -0.247,14.945 -0.04,3.783 0.104,7.572 -0.037,11.351 -0.187,5.021 -0.583,10.034 -0.856,15.052 -0.043,0.791 0.16,1.595 0.127,2.387 -0.226,5.333 -0.364,10.674 -0.774,15.994 -0.272,3.523 -0.939,7.016 -1.445,10.52 -0.358,2.476 -0.669,4.963 -1.139,7.418 -0.327,1.708 -0.889,3.372 -1.35,5.054 -0.052,0.19 -0.097,0.396 -0.203,0.554 -0.852,1.268 -0.777,1.485 0.565,2.328 1.612,1.012 3.203,2.058 4.773,3.133 2.625,1.795 5.223,3.63 7.838,5.44 2.83,1.96 5.641,3.947 8.508,5.852 2.214,1.471 4.41,3.015 6.779,4.195 2.635,1.311 4.951,3.162 7.808,4.138 1.782,0.608 3.19,2.232 4.921,3.085 2.759,1.36 5.259,3.148 8.167,4.319 2.25,0.905 4.447,1.216 6.743,1.501 1.496,0.186 2.629,-0.453 3.622,-1.434 1.543,0.783 3.16,-0.002 3.543,-1.724 0.859,-3.861 1.291,-7.769 1.431,-11.727 0.221,-6.216 0.615,-12.424 0.875,-18.638 0.17,-4.071 0.136,-8.151 0.369,-12.217 0.241,-4.22 0.655,-8.432 1.063,-12.641 0.381,-3.922 0.8,-7.842 1.303,-11.749 0.376,-2.915 0.954,-5.803 1.366,-8.713 0.377,-2.659 0.652,-5.333 0.927,-7.629" /></g><g
           transform="translate(239.4308,100.1262)"
           id="g40"><path
             id="path42"
             style="fill:#808285;fill-opacity:1;fill-rule:nonzero;stroke:none"
             d="M 0,0 C 0.019,-0.139 0.037,-0.279 0.056,-0.418 1.157,-0.153 2.284,0.405 3.355,0.313 5.304,0.146 5.682,1.643 6.318,2.765 6.847,3.7 6.333,4.669 5.688,5.503 5.308,5.996 4.792,6.555 4.758,7.11 4.697,8.135 4.237,8.291 3.381,8.243 0.397,8.075 -2.589,7.931 -5.575,7.806 -8.363,7.689 -11.156,7.664 -13.938,7.48 c -0.997,-0.066 -1.781,-0.052 -2.633,0.641 -1.103,0.896 -1.957,0.661 -2.885,-0.418 -1.387,-1.613 -2.121,-3.356 -1.23,-5.495 0.21,-0.505 0.224,-1.091 0.325,-1.64 0.28,-1.529 3.111,-3.026 4.375,-2.134 1.286,0.907 2.717,0.947 4.091,1.045 C -7.937,-0.239 -3.966,-0.159 0,0 m -22.788,34.266 c 1.068,1.032 2.115,2.088 3.21,3.091 1.231,1.126 2.487,2.227 3.766,3.298 2.125,1.782 4.68,2.244 7.356,2.358 4.961,0.212 9.405,-1.233 13.203,-4.377 1.418,-1.173 2.502,-2.763 3.685,-4.206 2.512,-3.068 4.873,-6.281 5.711,-10.229 1.047,-4.936 1.852,-9.925 2.686,-14.904 0.281,-1.682 0.336,-3.402 0.483,-5.106 0.392,-4.547 -0.808,-8.454 -4.568,-11.33 -0.285,-0.218 -0.576,-0.446 -0.797,-0.723 -0.409,-0.51 -0.769,-1.059 -1.148,-1.591 0.089,-0.096 0.179,-0.191 0.269,-0.287 -2.857,-0.128 -5.722,-0.153 -8.568,-0.406 -5.804,-0.516 -11.575,-1.25 -17.247,-2.692 -1.754,-0.446 -3.656,-0.603 -5.462,-0.477 -2.658,0.185 -5.327,0.582 -7.924,1.184 -2.853,0.661 -4.373,2.931 -5.393,5.48 -0.434,1.084 -0.665,2.306 -0.706,3.475 -0.043,1.225 0.555,1.542 1.773,1.45 1.419,-0.107 2.848,-0.078 4.267,-0.182 1.839,-0.135 2.808,1.312 4.067,2.202 0.303,0.214 0.43,0.861 0.415,1.301 -0.038,1.161 -0.101,2.338 -0.336,3.472 -0.26,1.255 -1.487,1.601 -2.475,1.994 -0.651,0.259 -1.479,0.136 -2.222,0.091 -0.973,-0.059 -1.941,-0.209 -3.284,-0.362 0.462,1.501 0.699,2.75 1.222,3.867 0.927,1.981 2.131,3.836 3.028,5.829 1.046,2.323 1.814,4.755 1.903,7.348 0.018,0.538 0.169,1.071 0.249,1.55 1.963,0 3.764,0.013 5.564,-0.006 0.672,-0.007 1.35,-0.165 2.016,-0.119 2.387,0.166 4.834,0.121 7.137,0.667 2.28,0.54 2.998,2.148 2.605,4.524 -0.121,0.733 -0.312,1.532 -0.73,2.116 -0.364,0.508 -1.046,0.9 -1.666,1.096 -3.217,1.015 -6.495,0.319 -9.751,0.246 -0.71,-0.015 -1.421,-0.002 -2.131,-0.002 -0.069,0.12 -0.138,0.24 -0.207,0.36" /></g><g
           transform="translate(224.8844,145.1602)"
           id="g44"><path
             id="path46"
             style="fill:#bcbec0;fill-opacity:1;fill-rule:nonzero;stroke:none"
             d="m 0,0 c 1.641,0.788 3.241,1.685 4.932,2.344 4.57,1.782 8.958,0.793 13.276,-1.034 2.524,-1.068 5.079,-2.066 7.62,-3.094 0.185,-0.075 0.408,-0.101 0.553,-0.222 1.768,-1.484 3.983,-1.464 6.083,-1.801 2.738,-0.439 5.526,-0.651 8.216,-1.288 1.82,-0.432 3.519,-1.398 5.25,-2.175 5.337,-2.395 7.623,-7.09 8.927,-12.339 1.155,-4.644 1.654,-9.408 1.487,-14.215 -0.023,-0.675 -0.153,-1.346 -0.177,-2.02 -0.029,-0.807 0.047,-1.618 -0.008,-2.422 -0.04,-0.586 -0.083,-1.239 -0.357,-1.732 -2.392,-4.293 -5.23,-8.256 -9.534,-10.811 -1.607,-0.953 -3.508,-1.555 -5.353,-1.932 -3.467,-0.708 -6.99,-1.144 -10.493,-1.671 -0.462,-0.069 -0.943,-0.009 -1.682,-0.009 0.49,0.511 0.798,0.966 1.221,1.25 3.079,2.069 4.197,5.195 4.291,8.64 0.082,3.05 -0.403,6.111 -0.472,9.171 -0.089,3.946 -1.195,7.685 -1.968,11.504 -0.444,2.194 -0.845,4.351 -1.803,6.392 -1.325,2.822 -2.955,5.431 -4.837,7.923 -2.369,3.137 -5.253,5.673 -8.601,7.636 -1.431,0.84 -3.136,1.271 -4.766,1.7 C 9.26,0.463 6.645,0.738 4.019,0.414 2.737,0.256 1.483,-0.121 0.217,-0.399 0.144,-0.266 0.072,-0.133 0,0" /></g><g
           transform="translate(283.8253,118.2609)"
           id="g48"><path
             id="path50"
             style="fill:#939598;fill-opacity:1;fill-rule:nonzero;stroke:none"
             d="m 0,0 c 3.063,-1.026 5.77,-1.94 8.482,-2.835 0.558,-0.184 1.192,-0.199 1.699,-0.466 2.931,-1.543 4.031,-4.885 2.604,-7.922 -0.243,-0.516 -0.658,-1.003 -1.106,-1.361 -2.025,-1.619 -4.395,-2.361 -6.947,-2.605 -1.152,-0.109 -2.301,-0.243 -3.45,-0.372 -0.683,-0.077 -1.04,0.159 -1.054,0.906 -0.061,3.381 -0.16,6.762 -0.223,10.143 C -0.023,-3.015 0,-1.517 0,0" /></g><g
           transform="translate(205.6092,126.1763)"
           id="g52"><path
             id="path54"
             style="fill:#58595b;fill-opacity:1;fill-rule:nonzero;stroke:none"
             d="m 0,0 c -0.111,1.768 -0.214,3.4 -0.329,5.22 0.85,0.157 1.84,0.438 2.845,0.506 2.942,0.198 5.889,0.312 8.835,0.457 0.358,0.018 0.732,0.098 1.073,0.028 1.433,-0.298 2.812,0.006 4.234,0.135 C 18.557,6.519 20.532,6.26 22.427,5.922 23.648,5.704 23.691,4.444 23.786,3.394 23.879,2.365 23.302,1.745 22.414,1.601 20.459,1.283 18.486,1.037 16.511,0.899 14.327,0.747 12.117,0.56 9.944,0.728 6.578,0.988 3.322,0.161 0,0" /></g><g
           transform="translate(194.5125,99.3694)"
           id="g56"><path
             id="path58"
             style="fill:#58595b;fill-opacity:1;fill-rule:nonzero;stroke:none"
             d="m 0,0 c -0.248,1.448 -0.479,2.798 -0.749,4.374 1.025,0.232 2.12,0.572 3.24,0.713 2.717,0.342 5.439,0.71 8.17,0.842 2.399,0.115 4.821,0.027 7.217,-0.171 C 19.151,5.653 19.986,3.159 19.04,2.298 18.301,1.626 17.264,1.05 16.29,0.91 13.575,0.521 10.828,0.325 8.087,0.16 5.5,0.004 2.904,-0.019 0.312,-0.09 0.167,-0.094 0.018,-0.006 0,0" /></g><g
           transform="translate(203.5661,128.3327)"
           id="g60"><path
             id="path62"
             style="fill:#58595b;fill-opacity:1;fill-rule:nonzero;stroke:none"
             d="m 0,0 c -0.086,-1.888 -0.884,-2.879 -2.477,-2.944 -0.256,-0.01 -0.571,0.047 -0.768,0.194 -1.643,1.231 -1.55,4.57 0.141,5.686 C -2.55,3.302 -0.762,2.668 -0.503,1.955 -0.274,1.325 -0.163,0.653 0,0" /></g><g
           transform="translate(190.522,99.0324)"
           id="g64"><path
             id="path66"
             style="fill:#58595b;fill-opacity:1;fill-rule:nonzero;stroke:none"
             d="m 0,0 c -1.353,-0.308 -1.513,0.891 -1.881,1.826 -0.391,0.995 -0.046,1.854 0.599,2.618 0.117,0.14 0.338,0.263 0.515,0.269 C 0.614,4.759 2.237,2.937 2.098,1.524 1.982,0.343 1.549,0.005 0,0" /></g><g
           transform="translate(93.2504,135.9628)"
           id="g68"><path
             id="path70"
             style="fill:#c49a6c;fill-opacity:1;fill-rule:nonzero;stroke:none"
             d="m 0,0 c -0.117,-0.05 -0.233,-0.099 -0.35,-0.149 0.301,-0.625 0.458,-1.56 0.945,-1.785 0.466,-0.216 1.342,0.188 1.915,0.528 0.886,0.523 1.626,1.292 2.508,1.822 0.474,0.285 1.123,0.42 1.68,0.391 C 7.797,0.749 9.15,1.482 9.075,2.29 8.961,3.517 8.887,4.768 8.58,5.952 7.181,11.337 6.774,16.869 6.25,22.364 5.73,27.81 4.742,33.158 3.727,38.514 3.589,39.242 3.351,39.959 4.021,40.631 4.187,40.798 4.07,41.6 3.875,41.699 3.5,41.888 2.861,41.97 2.533,41.768 0.371,40.439 -1.639,38.855 -4.16,38.173 c -0.52,-0.14 -0.968,-0.487 -0.565,-1.262 0.406,-0.784 0.761,-1.652 0.875,-2.518 0.275,-2.091 0.359,-4.207 0.587,-6.305 0.512,-4.708 1.039,-9.414 1.609,-14.114 0.373,-3.076 0.86,-6.138 1.243,-9.212 C -0.214,3.182 -0.133,1.588 0,0 m -24.768,-8.074 c -0.033,-0.002 -0.065,-0.004 -0.098,-0.007 0.135,-1.869 0.286,-3.737 0.399,-5.608 0.1,-1.66 0.772,-2.06 2.173,-1.245 0.206,0.12 0.399,0.265 0.598,0.399 1.819,1.215 3.634,2.436 5.457,3.645 0.785,0.52 1.151,1.179 0.827,2.13 -0.089,0.26 -0.126,0.543 -0.152,0.819 -0.374,4.041 -0.753,8.081 -1.109,12.123 -0.353,4.009 -0.705,8.02 -1.013,12.033 -0.207,2.702 -0.359,5.408 -0.497,8.114 -0.106,2.092 -0.147,4.188 -0.228,6.281 -0.013,0.325 0.023,0.824 -0.154,0.933 -0.285,0.174 -0.77,0.207 -1.095,0.09 -0.473,-0.171 -0.865,-0.554 -1.316,-0.803 -1.623,-0.896 -3.214,-1.868 -4.902,-2.62 -0.91,-0.406 -1.091,-0.919 -0.91,-1.749 0.202,-0.926 0.567,-1.844 0.601,-2.775 0.126,-3.425 0.125,-6.854 0.206,-10.281 0.075,-3.141 0.126,-6.285 0.311,-9.421 0.236,-4.023 0.596,-8.039 0.902,-12.058 m -10.301,-34.163 c 0,2.98 0.066,5.729 -0.017,8.474 -0.102,3.347 -0.318,6.69 -0.505,10.033 -0.201,3.579 -0.429,7.155 -0.639,10.733 -0.317,5.416 -0.717,10.828 -0.917,16.249 -0.184,4.984 -0.155,9.976 -0.211,14.965 -0.034,2.988 0.103,5.988 -0.119,8.962 -0.254,3.407 -0.853,6.786 -1.243,10.185 -0.276,2.409 -0.531,4.828 -0.614,7.249 -0.019,0.545 0.625,1.223 1.124,1.652 0.986,0.848 2.051,1.616 3.147,2.319 0.786,0.504 1.691,0.819 2.512,1.274 0.72,0.4 1.451,0.813 2.085,1.333 1.536,1.262 3.022,2.583 5.058,2.994 0.113,0.023 0.218,0.095 0.321,0.154 2.334,1.353 4.659,2.719 7.002,4.057 1.445,0.825 2.937,1.57 4.371,2.414 2.107,1.24 4.173,2.549 6.273,3.801 1.158,0.691 2.337,1.351 3.528,1.984 2.671,1.422 5.419,2.71 8.013,4.258 2.071,1.235 3.949,2.791 5.937,4.167 0.639,0.443 1.359,0.768 2.448,1.373 0.311,-4.735 0.674,-9.133 0.872,-13.539 0.332,-7.378 0.501,-14.764 0.851,-22.141 0.239,-5.021 0.629,-10.036 1.032,-15.047 0.301,-3.735 0.658,-7.469 1.123,-11.186 0.805,-6.448 1.71,-12.882 2.58,-19.321 0.098,-0.725 -0.011,-1.21 -0.771,-1.636 -3.545,-1.986 -7.152,-3.898 -10.522,-6.155 -3.859,-2.585 -8.045,-4.605 -11.712,-7.56 -4.074,-3.282 -8.641,-5.953 -12.997,-8.883 -2.442,-1.643 -4.928,-3.221 -7.325,-4.926 -1.491,-1.061 -2.82,-2.345 -4.28,-3.453 -1.546,-1.172 -3.17,-2.24 -4.741,-3.381 -0.556,-0.404 -1.056,-0.886 -1.664,-1.402" /></g><g
           transform="translate(55.372,94.6287)"
           id="g72"><path
             id="path74"
             style="fill:#8b5d3b;fill-opacity:1;fill-rule:nonzero;stroke:none"
             d="m 0,0 c -2.086,1.474 -2.673,3.321 -2.657,5.583 0.03,4.179 -0.149,8.36 -0.195,12.541 -0.038,3.342 0.036,6.685 -0.02,10.026 -0.058,3.377 -0.21,6.752 -0.329,10.128 -0.139,3.985 -0.249,7.972 -0.44,11.954 -0.185,3.856 -0.333,7.721 -0.722,11.558 -0.522,5.134 -1.199,10.254 -1.934,15.363 -0.333,2.311 -0.974,4.577 -1.459,6.867 -0.114,0.538 -0.16,1.09 -0.291,2.012 1.455,-0.361 2.702,-0.64 3.924,-1.004 0.212,-0.063 0.432,-0.475 0.454,-0.741 0.632,-7.633 1.336,-15.263 1.807,-22.906 0.225,-3.651 -0.11,-7.333 0.003,-10.995 C -1.657,43.844 -1.32,37.307 -1.016,30.77 -0.775,25.587 -0.478,20.407 -0.243,15.224 -0.056,11.084 0.094,6.942 0.218,2.8 0.245,1.932 0.088,1.058 0,0" /></g><g
           transform="translate(101.8551,213.3942)"
           id="g76"><path
             id="path78"
             style="fill:#8b5d3b;fill-opacity:1;fill-rule:nonzero;stroke:none"
             d="m 0,0 c -0.821,-1.798 -2.279,-2.518 -3.618,-3.341 -2.641,-1.624 -5.165,-3.577 -8.011,-4.693 -3.511,-1.378 -6.427,-3.641 -9.668,-5.397 -3.538,-1.918 -7.147,-3.708 -10.647,-5.693 -2.93,-1.662 -5.736,-3.543 -8.618,-5.292 -1.288,-0.783 -2.678,-1.406 -3.933,-2.235 -1.755,-1.159 -3.489,-2.369 -5.118,-3.697 -1.383,-1.127 -2.615,-0.019 -4.147,-0.164 0.98,1.594 2.319,2.346 3.595,3.184 1.291,0.848 2.521,1.789 3.818,2.627 2.447,1.581 4.934,3.1 7.38,4.682 0.796,0.515 1.475,1.213 2.279,1.713 1.406,0.875 2.899,1.611 4.295,2.501 1.036,0.661 1.946,1.517 2.966,2.205 0.706,0.475 1.495,0.831 2.264,1.204 0.443,0.215 1.064,0.229 1.356,0.556 1.582,1.769 3.811,2.405 5.787,3.496 2.047,1.131 3.986,2.459 5.989,3.674 1.847,1.121 3.635,2.394 5.602,3.249 1.521,0.662 3.268,0.833 4.932,1.121 1.086,0.188 2.203,0.196 3.497,0.3" /></g><g
           transform="translate(223.8545,102.9878)"
           id="g80"><path
             id="path82"
             style="fill:#231f20;fill-opacity:1;fill-rule:nonzero;stroke:none"
             d="m 0,0 c -0.204,1.165 0.068,2.386 -1.677,3.052 -1.093,0.417 -1.245,0.133 -1.64,-0.52 -0.434,-0.717 -0.13,-4.104 0.519,-4.641 0.345,-0.284 1.127,-0.547 1.357,-0.367 C -0.68,-1.879 0.448,-1.379 0,0 m 1.981,-1.658 c 3.873,0.18 7.689,0.333 11.501,0.548 1.587,0.09 3.174,0.258 4.745,0.494 1.363,0.206 1.827,1.178 1.288,2.41 -0.237,0.541 -0.433,1.101 -0.687,1.754 -0.354,0 -0.747,0.007 -1.139,-0.002 C 15.43,3.494 13.171,3.461 10.913,3.377 8.01,3.268 5.106,3.136 2.207,2.957 1.902,2.938 1.353,2.508 1.372,2.314 1.5,1.018 1.752,-0.265 1.981,-1.658 M 15.576,-2.862 C 11.61,-3.021 7.639,-3.1 3.682,-3.382 2.308,-3.48 0.876,-3.521 -0.41,-4.428 c -1.263,-0.891 -4.094,0.606 -4.375,2.135 -0.101,0.549 -0.115,1.135 -0.325,1.639 -0.891,2.14 -0.157,3.882 1.23,5.495 0.929,1.079 1.782,1.314 2.885,0.418 0.853,-0.693 1.636,-0.707 2.633,-0.641 2.783,0.185 5.576,0.21 8.363,0.327 2.987,0.125 5.972,0.269 8.956,0.436 0.856,0.048 1.316,-0.108 1.378,-1.133 0.033,-0.554 0.549,-1.113 0.93,-1.606 0.644,-0.835 1.158,-1.804 0.629,-2.738 -0.636,-1.123 -1.014,-2.619 -2.962,-2.453 -1.071,0.092 -2.198,-0.466 -3.3,-0.731 -0.019,0.14 -0.037,0.279 -0.056,0.418" /></g><g
           transform="translate(70.0086,162.8561)"
           id="g84"><path
             id="path86"
             style="fill:#231f20;fill-opacity:1;fill-rule:nonzero;stroke:none"
             d="m 0,0 c -1.273,-0.176 -1.212,-0.986 -1.191,-1.69 0.075,-2.51 0.218,-5.017 0.295,-7.526 0.134,-4.386 0.144,-8.779 0.38,-13.159 0.265,-4.935 0.722,-9.859 1.104,-14.787 0.008,-0.096 0.121,-0.185 0.265,-0.393 0.998,0.832 1.986,1.616 2.918,2.463 0.193,0.176 0.281,0.593 0.246,0.877 -0.492,3.99 -0.995,7.978 -1.534,11.961 -0.406,2.995 -0.955,5.973 -1.282,8.976 C 0.845,-10 0.684,-6.7 0.411,-3.412 0.316,-2.273 0.14,-1.142 0,0 m -1.526,-34.967 c -0.306,4.019 -0.666,8.035 -0.902,12.058 -0.185,3.136 -0.237,6.28 -0.311,9.421 -0.081,3.427 -0.081,6.856 -0.206,10.281 -0.034,0.931 -0.399,1.849 -0.601,2.775 -0.181,0.83 0,1.343 0.91,1.748 1.688,0.753 3.279,1.725 4.902,2.621 C 2.717,4.186 3.109,4.568 3.582,4.74 3.907,4.857 4.392,4.824 4.677,4.649 4.854,4.541 4.818,4.042 4.831,3.717 4.912,1.623 4.953,-0.472 5.059,-2.564 c 0.138,-2.706 0.29,-5.413 0.497,-8.114 0.308,-4.014 0.66,-8.024 1.013,-12.034 0.356,-4.042 0.735,-8.082 1.109,-12.122 0.026,-0.276 0.063,-0.559 0.151,-0.819 0.325,-0.951 -0.041,-1.61 -0.826,-2.131 -1.823,-1.209 -3.638,-2.429 -5.457,-3.645 -0.199,-0.133 -0.392,-0.278 -0.599,-0.398 -1.4,-0.815 -2.073,-0.415 -2.173,1.245 -0.112,1.87 -0.264,3.739 -0.398,5.608 0.033,0.002 0.065,0.005 0.098,0.007" /></g><g
           transform="translate(92.8216,173.7019)"
           id="g88"><path
             id="path90"
             style="fill:#231f20;fill-opacity:1;fill-rule:nonzero;stroke:none"
             d="m 0,0 c -0.451,-0.176 -0.952,-0.305 -1.372,-0.566 -0.194,-0.12 -0.326,-0.501 -0.317,-0.758 0.028,-0.817 0.122,-1.632 0.214,-2.446 0.423,-3.715 0.859,-7.429 1.281,-11.145 0.537,-4.714 1.048,-9.431 1.605,-14.142 0.226,-1.909 0.546,-3.807 0.84,-5.823 1.136,0.809 2.149,1.505 3.127,2.248 0.177,0.134 0.318,0.473 0.289,0.693 -0.151,1.142 -0.335,2.282 -0.559,3.413 -0.601,3.037 -1.28,6.061 -1.831,9.107 -0.545,3.017 -0.938,6.061 -1.459,9.082 C 1.406,-7.953 0.883,-5.588 0.445,-3.208 0.253,-2.166 0.151,-1.108 0,0 m 0.429,-37.739 c -0.133,1.588 -0.214,3.182 -0.411,4.762 -0.383,3.074 -0.87,6.136 -1.243,9.211 -0.57,4.701 -1.097,9.407 -1.609,14.114 -0.228,2.099 -0.312,4.215 -0.587,6.306 -0.114,0.866 -0.469,1.734 -0.876,2.518 -0.402,0.775 0.046,1.122 0.566,1.262 C -1.21,1.116 0.8,2.7 2.962,4.029 3.29,4.231 3.929,4.148 4.303,3.959 4.499,3.861 4.616,3.058 4.45,2.892 3.78,2.22 4.018,1.503 4.156,0.775 5.171,-4.581 6.159,-9.93 6.678,-15.375 c 0.525,-5.496 0.932,-11.027 2.331,-16.412 0.307,-1.184 0.381,-2.435 0.495,-3.662 0.075,-0.808 -1.278,-1.541 -2.377,-1.483 -0.558,0.029 -1.207,-0.106 -1.68,-0.391 -0.882,-0.53 -1.622,-1.299 -2.508,-1.823 -0.573,-0.339 -1.449,-0.743 -1.915,-0.527 -0.487,0.225 -0.644,1.16 -0.945,1.785 0.117,0.05 0.233,0.099 0.35,0.149" /></g><g
           transform="translate(225.835,101.3295)"
           id="g92"><path
             id="path94"
             style="fill:#58595b;fill-opacity:1;fill-rule:nonzero;stroke:none"
             d="m 0,0 c -0.229,1.393 -0.481,2.677 -0.609,3.972 -0.019,0.194 0.53,0.624 0.835,0.643 2.9,0.179 5.803,0.311 8.707,0.42 2.257,0.084 4.517,0.117 6.775,0.17 0.393,0.009 0.786,0.001 1.14,0.001 0.254,-0.653 0.45,-1.212 0.687,-1.754 C 18.074,2.22 17.61,1.248 16.246,1.043 14.675,0.806 13.088,0.638 11.502,0.549 7.69,0.333 3.874,0.181 0,0" /></g><g
           transform="translate(223.8545,102.9878)"
           id="g96"><path
             id="path98"
             style="fill:#58595b;fill-opacity:1;fill-rule:nonzero;stroke:none"
             d="m 0,0 c 0.448,-1.379 -0.68,-1.879 -1.441,-2.476 -0.23,-0.18 -1.012,0.083 -1.357,0.367 -0.649,0.537 -0.953,3.924 -0.519,4.641 0.395,0.653 0.547,0.937 1.64,0.52 C 0.068,2.386 -0.204,1.165 0,0" /></g><g
           transform="translate(70.0086,162.8561)"
           id="g100"><path
             id="path102"
             style="fill:#603912;fill-opacity:1;fill-rule:nonzero;stroke:none"
             d="M 0,0 C 0.14,-1.142 0.316,-2.273 0.411,-3.412 0.684,-6.7 0.845,-10 1.201,-13.278 c 0.327,-3.003 0.876,-5.981 1.282,-8.976 0.539,-3.983 1.042,-7.971 1.534,-11.961 0.035,-0.284 -0.053,-0.701 -0.246,-0.877 -0.932,-0.847 -1.92,-1.631 -2.918,-2.463 -0.144,0.208 -0.257,0.297 -0.265,0.393 -0.382,4.928 -0.839,9.852 -1.104,14.787 -0.236,4.38 -0.246,8.773 -0.38,13.159 -0.077,2.509 -0.22,5.016 -0.295,7.526 C -1.212,-0.986 -1.273,-0.176 0,0" /></g><g
           transform="translate(92.8216,173.7019)"
           id="g104"><path
             id="path106"
             style="fill:#603912;fill-opacity:1;fill-rule:nonzero;stroke:none"
             d="m 0,0 c 0.151,-1.108 0.253,-2.166 0.445,-3.208 0.438,-2.38 0.961,-4.745 1.373,-7.129 0.521,-3.021 0.914,-6.065 1.459,-9.082 0.551,-3.046 1.23,-6.07 1.831,-9.107 0.224,-1.131 0.408,-2.271 0.559,-3.413 0.029,-0.22 -0.112,-0.559 -0.289,-0.693 -0.978,-0.743 -1.991,-1.439 -3.127,-2.248 -0.294,2.016 -0.614,3.914 -0.84,5.823 -0.557,4.711 -1.068,9.428 -1.605,14.142 -0.422,3.716 -0.858,7.43 -1.281,11.145 -0.092,0.814 -0.186,1.629 -0.214,2.446 -0.009,0.257 0.123,0.638 0.317,0.758 0.42,0.261 0.921,0.39 1.372,0.566" /></g></g></g></g></svg>